<svg xmlns="http://www.w3.org/2000/svg" viewBox="0 0 754.55 211.28"><defs><style>.cls-1{fill:#2e81c4;}.cls-2{fill:#45a9e0;}.cls-3,.cls-6{fill:#213b88;}.cls-4{fill:#226db4;}.cls-5{fill:#2a9dd8;}.cls-6,.cls-7{fill-rule:evenodd;}.cls-7{fill:#fee800;}.cls-8{fill:#e30613;}.cls-9{fill:#3c3c3b;}.cls-10{fill:#393a36;}</style></defs><g id="Capa_2" data-name="Capa 2"><g id="Logo_Muni" data-name="Logo Muni"><polygon class="cls-1" points="128.5 175.57 110.17 190.26 127.84 197.43 145.53 190.26 128.5 175.57"/><polygon class="cls-2" points="104.58 161.47 92.26 125.6 99.39 106.83 109.12 100.75 106.9 90.96 128.5 175.57 104.58 161.47"/><polygon class="cls-2" points="151.55 163.37 157.55 130.67 154.25 117.69 144.63 112.8 128.5 175.57 151.55 163.37"/><polygon class="cls-1" points="106.9 90.96 128.5 175.57 124.25 62.99 118.44 82.28 106.9 90.96"/><path class="cls-3" d="M144.63,112.8,148,94s14.17,2.2,14.07-12.26c0,0-6.06,8.18-10.65.56L124.25,63l4.25,112.58Z"/><path class="cls-3" d="M84.37,41.2s5.35-21.44,25-28.67c0,0,4.63-.94,7.64.29,0,0,4.13.91,6.36-.63l12.9,19.39-20-.5-13.69,1.64Z"/><polygon class="cls-3" points="124.25 62.99 116.21 31.08 136.26 31.58 124.25 62.99"/><polygon class="cls-2" points="151.38 82.28 146.71 66.99 146.16 60.26 136.26 31.58 124.25 62.99 151.38 82.28"/><polygon class="cls-4" points="136.26 31.58 123.36 12.19 138.73 21.03 136.26 31.58"/><polygon class="cls-1" points="136.26 31.58 146.16 60.26 157.41 65.75 154.13 52.6 149.63 49.2 149 40.05 144.63 32.84 136.26 31.58"/><path class="cls-3" d="M136.26,31.58,138.73,21s7.94.32,7.14-6.65l-2-10.94h9.27l3.2,13.21Z"/><path class="cls-1" d="M156.39,16.65l10.15,6.92s-6.4-2.22-11.43,1.12l-10.48,8.14-8.37-1.24Z"/><polygon class="cls-3" points="145.5 190.26 148.62 202.06 164.15 201.27 154.28 192.31 159.42 193.44 155.24 185.81 155.24 178.95 151.55 163.37 157.55 130.67 128.5 175.57 145.5 190.26"/><polygon class="cls-3" points="209.33 72.84 242.22 28.2 244.74 38.45 225.57 78.73 246.5 59.61 248.84 72.84 232.04 103.95 177.1 162.79 209.33 72.84"/><polygon class="cls-4" points="177.1 162.79 162.21 121.94 156.72 127.41 157.55 130.67 151.55 163.37 154.05 174.23 157.36 179.56 187.13 190.71 177.1 162.79"/><polygon class="cls-2" points="177.1 162.79 162.21 121.94 173.33 69.31 177.1 162.79"/><polygon class="cls-3" points="173.33 69.31 181.89 49.71 198.63 0 205.13 4.76 195.3 53.36 214.97 4.76 218.47 8.99 200.98 56.29 222.75 8.99 227.04 16.29 205.13 67 209.33 72.84 177.09 162.79 173.33 69.31"/><polygon class="cls-3" points="249.81 92.87 249.81 104.39 222.75 121.17 249.81 111.57 246.51 123.87 219.61 133.07 242.22 132.5 244.74 142.68 240.98 151.52 216.52 149.21 177.1 162.79 232.04 103.95 249.81 92.87"/><polygon class="cls-3" points="187.13 190.71 214.96 188.02 227.03 181.87 228.4 177.26 206.21 166.57 229.37 173.81 232.93 166.5 206.02 153.44 236.38 161.5 239.5 156.71 216.52 149.21 177.1 162.79 187.13 190.71"/><polygon class="cls-1" points="173.33 69.31 195.3 53.36 209.33 72.84 177.09 162.79 173.33 69.31"/><polygon class="cls-4" points="209.33 72.84 225.57 78.73 232.04 103.95 177.1 162.79 209.33 72.84"/><polygon class="cls-5" points="177.1 162.79 205.96 132.02 219.72 133.07 216.64 149.21 177.1 162.79"/><polygon class="cls-2" points="177.1 162.79 205.25 153.14 206.33 166.57 187.13 190.71 177.1 162.79"/><polygon class="cls-1" points="177.1 162.79 157.36 179.56 187.13 190.71 177.1 162.79"/><polygon class="cls-3" points="40.48 72.84 7.59 28.2 5.06 38.44 24.23 78.73 3.31 59.61 0.97 72.84 17.76 103.95 72.72 162.79 40.48 72.84"/><polygon class="cls-4" points="72.72 162.79 87.6 121.94 92.91 127.51 94.89 133.27 104.58 161.47 101.81 178.92 101.81 185.78 62.68 190.71 72.72 162.79"/><polygon class="cls-2" points="72.72 162.79 87.6 121.94 76.48 69.31 72.72 162.79"/><polygon class="cls-3" points="76.48 69.31 67.93 49.71 51.18 0 44.68 4.76 54.51 53.36 34.84 4.76 31.33 8.99 48.84 56.29 27.05 8.99 22.78 16.29 44.68 67 40.48 72.84 72.72 162.79 76.48 69.31"/><polygon class="cls-3" points="0 92.87 0 104.39 27.05 121.17 0 111.57 3.31 123.87 30.2 133.07 7.59 132.5 5.06 142.68 8.83 151.52 33.28 149.21 72.72 162.79 17.76 103.95 0 92.87"/><polygon class="cls-3" points="62.68 190.71 34.84 188.02 22.77 181.87 21.41 177.26 43.59 166.57 20.43 173.81 16.88 166.5 43.79 153.44 13.43 161.5 10.3 156.71 33.28 149.21 72.72 162.79 62.68 190.71"/><polygon class="cls-1" points="76.48 69.31 54.51 53.36 40.48 72.84 72.72 162.79 76.48 69.31"/><polygon class="cls-4" points="40.48 72.84 24.23 78.73 17.76 103.95 72.72 162.79 40.48 72.84"/><polygon class="cls-5" points="72.72 162.79 43.84 132.02 30.07 133.07 33.16 149.21 72.72 162.79"/><polygon class="cls-2" points="72.72 162.79 44.56 153.14 43.47 166.57 62.68 190.71 72.72 162.79"/><polygon class="cls-1" points="72.72 162.79 101.81 178.92 62.68 190.71 72.72 162.79"/><polygon class="cls-3" points="111.54 190.24 108.89 199.8 94.88 197.97 102.75 192.28 97.62 193.4 101.8 185.78 101.8 178.92 104.58 161.47 94.47 132.02 128.52 175.54 111.54 190.24"/><path class="cls-6" d="M6.73,168.86s132.21,63.86,251.46,7.5c0,0-93,63.15-251.46,19.62Z"/><path class="cls-7" d="M6.73,166.07s132.21,66.65,251.46,10.29c0,0-93,52.64-251.46,9.1Z"/><rect class="cls-8" x="270.31" y="151.24" width="483.82" height="6.48"/><path class="cls-9" d="M321.92,76.12c0-14.28,7.68-22.46,21.82-22.49s21.89,8.11,21.92,22.4l.1,46.43c0,14.29-7.68,22.48-21.83,22.51s-21.88-8.12-21.91-22.42Zm14.5,47.3c0,6.38,2.9,8.8,7.49,8.79s7.46-2.44,7.44-8.82l-.1-48.22c0-6.37-2.9-8.79-7.48-8.78s-7.47,2.44-7.45,8.81Z"/><path class="cls-9" d="M388.06,78.74h-.27l.14,65.61-13,0-.19-90.59,18.08,0,14.65,54.18h.26l-.11-54.21,12.83,0,.19,90.58-14.8,0Z"/><path class="cls-9" d="M495.86,91.71l19.78,0,0,12.93-19.78,0,.05,26.54,24.89-.05,0,12.94-39.28.08-.19-90.58,39.28-.08,0,12.95-24.88,0Z"/><path class="cls-9" d="M572.32,76l0,11.75c0,14.44-7,22.33-21.44,22.36l-6.81,0,.07,33.94-14.41,0-.18-90.34,21.21,0C565.2,53.64,572.29,61.5,572.32,76ZM544,66.6l.06,30.57h6.81c4.59,0,7.07-2.08,7.06-8.53l0-13.55c0-6.45-2.5-8.51-7.09-8.5Z"/><path class="cls-9" d="M623.38,110l0,11.77c0,14.16-7.28,22.28-21.44,22.31s-21.48-8.06-21.51-22.22l-.1-46c0-14.17,7.29-22.28,21.43-22.3s21.49,8,21.52,22.21l0,8.6-13.62,0,0-9.49c0-6.32-2.9-8.71-7.48-8.7s-7.46,2.41-7.45,8.73l.1,47.81c0,6.32,2.9,8.59,7.49,8.58s7.46-2.29,7.44-8.62l0-12.65Z"/><path class="cls-9" d="M632,53.46l14.41,0,.19,90.58-14.41,0Z"/><path class="cls-9" d="M655.79,75.7c0-14.12,7.67-22.21,21.82-22.24s21.89,8,21.92,22.14l.1,45.9c0,14.12-7.68,22.21-21.83,22.24s-21.89-8-21.92-22.15ZM693,35.77l-13.32,14-9.7,0,8.88-14ZM670.3,122.44c0,6.31,2.89,8.7,7.47,8.69s7.46-2.41,7.45-8.72l-.1-47.65c0-6.31-2.89-8.7-7.48-8.69s-7.46,2.41-7.44,8.72Z"/><path class="cls-9" d="M721.93,78.26h-.27l.14,65.6-13,0-.19-90.58,18.08,0,14.64,54.18h.26l-.11-54.21,12.84,0,.19,90.59-14.81,0Z"/><path class="cls-9" d="M472.34,110.17l0,11.73c0,14.12-7.27,22.21-21.43,22.24s-21.48-8-21.51-22.15l-.1-45.89c0-14.12,7.29-22.2,21.42-22.23s21.5,8,21.53,22.14l0,8.58-13.62,0,0-9.46c0-6.3-2.9-8.69-7.48-8.68s-7.47,2.41-7.45,8.71l.1,47.66c0,6.3,2.9,8.56,7.48,8.55s7.46-2.28,7.45-8.58l0-12.62Z"/><path class="cls-9" d="M314.5,110.5l0,11.73c0,14.12-7.28,22.21-21.44,22.24s-21.48-8-21.51-22.15l-.1-45.89c0-14.12,7.29-22.2,21.42-22.23s21.5,8,21.53,22.14l0,8.58-13.62,0,0-9.46c0-6.3-2.9-8.69-7.49-8.68s-7.45,2.41-7.44,8.71l.1,47.66c0,6.3,2.9,8.56,7.48,8.55s7.46-2.28,7.45-8.58l0-12.62Z"/><path class="cls-9" d="M376.36,40h-2.58l-8.3-34.12V40.07h-2.3V1.48h3.7l8.25,34.12,8.18-34.12H387V40.07h-2.46V5.78Z"/><path class="cls-9" d="M394.63,30.75c0,4.14,1.57,7.33,5.89,7.33s5.89-3.19,5.89-7.33V1.48h2.41V30.64c0,5.51-2.35,9.76-8.35,9.76s-8.41-4.25-8.41-9.76V1.48h2.57Z"/><path class="cls-9" d="M416.28,40.07h-2.36V1.48h3.36l11.78,32.58V1.48h2.35V40.07h-2.85L416.28,5.67Z"/><path class="cls-9" d="M439.09,1.48V40.07h-2.58V1.48Z"/><path class="cls-9" d="M461,10.91V14.1h-2.47V10.74c0-4.13-1.63-7.28-5.94-7.28s-5.95,3.15-5.95,7.28V30.81c0,4.13,1.63,7.22,5.95,7.22s5.94-3.09,5.94-7.22V26.23H461v4.41c0,5.57-2.47,9.76-8.47,9.76s-8.47-4.19-8.47-9.76V10.91c0-5.57,2.47-9.76,8.47-9.76S461,5.34,461,10.91Z"/><path class="cls-9" d="M468.47,1.48V40.07h-2.58V1.48Z"/><path class="cls-9" d="M481.76,1.48c6.06,0,8.41,3.75,8.41,9.37V15c0,6.12-2.86,9.15-9.08,9.15h-4.88V40.07h-2.58V1.48Zm-.67,20.4c4.54,0,6.5-2,6.5-6.67V10.68c0-4.18-1.45-6.89-5.83-6.89h-5.55V21.88Z"/><path class="cls-9" d="M497.74,31.52l-2,8.55h-2.36L502,1.42h3.76l8.74,38.65h-2.57l-2-8.55Zm.39-2.2h11.44l-5.77-25Z"/><path class="cls-9" d="M519.1,40.07V1.48h2.58V37.75H534v2.32Z"/><path class="cls-9" d="M541.13,1.48V40.07h-2.58V1.48Z"/><path class="cls-9" d="M554.92,1.48c6.06,0,8.69,3.91,8.69,9.59V30.48c0,5.67-2.63,9.59-8.69,9.59h-8.63V1.48Zm0,36.27c4.37,0,6.17-2.92,6.17-7.16V11c0-4.25-1.85-7.17-6.17-7.17h-6v34Z"/><path class="cls-9" d="M572.25,31.52l-2,8.55h-2.36l8.58-38.65h3.76L589,40.07h-2.58l-1.95-8.55Zm.39-2.2h11.44l-5.77-25Z"/><path class="cls-9" d="M602.24,1.48c6.06,0,8.69,3.91,8.69,9.59V30.48c0,5.67-2.63,9.59-8.69,9.59h-8.63V1.48Zm0,36.27c4.37,0,6.17-2.92,6.17-7.16V11c0-4.25-1.85-7.17-6.17-7.17h-6v34Z"/><path class="cls-9" d="M633.86,1.48c6.06,0,8.7,3.91,8.7,9.59V30.48c0,5.67-2.64,9.59-8.7,9.59h-8.63V1.48Zm-.05,36.27c4.37,0,6.17-2.92,6.17-7.16V11c0-4.25-1.85-7.17-6.17-7.17h-6v34Z"/><path class="cls-9" d="M660.78,19.34v2.32H650.07V37.75H663v2.32H647.49V1.48H663V3.79h-12.9V19.34Z"/><path class="cls-10" d="M289.63,179.26v3.32H287.1v-3.49c0-4.28-1.65-7.53-6.07-7.53s-6.07,3.25-6.07,7.53v20.78c0,4.28,1.66,7.48,6.07,7.48s6.07-3.2,6.07-7.48v-4.74h2.53v4.57c0,5.77-2.53,10.1-8.66,10.1s-8.64-4.33-8.64-10.1V179.26c0-5.76,2.51-10.1,8.64-10.1S289.63,173.5,289.63,179.26Z"/><path class="cls-10" d="M296.56,169.51v40h-2.64v-40Z"/><path class="cls-10" d="M303.66,199.81c0,4.29,1.6,7.59,6,7.59s6-3.3,6-7.59v-30.3h2.47V199.7c0,5.71-2.41,10.1-8.54,10.1S301,205.41,301,199.7V169.51h2.64Z"/><path class="cls-10" d="M331.5,169.51c6.18,0,8.87,4.05,8.87,9.93v20.09c0,5.88-2.69,9.94-8.87,9.94h-8.83v-40Zm-.06,37.55c4.47,0,6.3-3,6.3-7.42V179.33c0-4.4-1.9-7.43-6.3-7.43h-6.13v35.16Z"/><path class="cls-10" d="M348.5,200.61l-2,8.86h-2.4l8.76-40h3.83l8.94,40H363l-2-8.86Zm.41-2.28h11.68l-5.9-25.86Z"/><path class="cls-10" d="M378.46,169.51c6.19,0,8.88,4.05,8.88,9.93v20.09c0,5.88-2.69,9.94-8.88,9.94h-8.82v-40Zm-.06,37.55c4.47,0,6.3-3,6.3-7.42V179.33c0-4.4-1.89-7.43-6.3-7.43h-6.12v35.16Z"/><path class="cls-10" d="M409.39,169.51c6.18,0,8.87,4.05,8.87,9.93v20.09c0,5.88-2.69,9.94-8.87,9.94h-8.82v-40Zm-.06,37.55c4.47,0,6.3-3,6.3-7.42V179.33c0-4.4-1.88-7.43-6.3-7.43h-6.12v35.16Z"/><path class="cls-10" d="M436.19,188v2.4H425.25v16.66h13.18v2.41H422.61v-40h15.82v2.39H425.25V188Z"/><path class="cls-10" d="M451.61,209.47v-40h2.63v37.55h12.6v2.41Z"/><path class="cls-10" d="M474.62,200.61l-2,8.86h-2.41l8.76-40h3.84l8.94,40h-2.64l-2-8.86Zm.41-2.28h11.68l-5.89-25.86Z"/><path class="cls-10" d="M507.27,169.51v40h-2.63v-40Z"/><path class="cls-10" d="M514.26,209.47h-2.4v-40h3.43l12,33.73V169.51h2.41v40H526.8l-12.54-35.63Z"/><path class="cls-10" d="M543.07,169.51c6.19,0,8.88,4.05,8.88,9.93v20.09c0,5.88-2.69,9.94-8.88,9.94h-8.82v-40ZM543,207.06c4.46,0,6.29-3,6.29-7.42V179.33c0-4.4-1.88-7.43-6.29-7.43h-6.13v35.16Z"/><path class="cls-10" d="M569.88,188v2.4h-11v16.66h13.18v2.41H556.3v-40h15.81v2.39H558.93V188Z"/><path class="cls-10" d="M584.71,169.51c6.19,0,8.6,3.87,8.6,9.7v4.34c0,6.33-2.93,9.48-9.28,9.48h-5v16.44H576.4v-40ZM584,190.62c4.64,0,6.64-2.05,6.64-6.91V179c0-4.33-1.49-7.13-6-7.13h-5.66v18.72Z"/><path class="cls-10" d="M610.83,188v2.4H599.89v16.66h13.17v2.41H597.25v-40h15.81v2.39H599.89V188Z"/><path class="cls-10" d="M619.77,209.47h-2.41v-40h3.43l12,33.73V169.51h2.41v40h-2.92l-12.54-35.63Z"/><path class="cls-10" d="M648.58,169.51c6.18,0,8.88,4.05,8.88,9.93v20.09c0,5.88-2.7,9.94-8.88,9.94h-8.83v-40Zm-.07,37.55c4.48,0,6.31-3,6.31-7.42V179.33c0-4.4-1.9-7.43-6.31-7.43h-6.13v35.16Z"/><path class="cls-10" d="M675.38,188v2.4H664.44v16.66h13.18v2.41H661.81v-40h15.81v2.39H664.44V188Z"/><path class="cls-10" d="M684.31,209.47h-2.4v-40h3.44l12,33.73V169.51h2.41v40h-2.92l-12.55-35.63Z"/><path class="cls-10" d="M721.44,179.26v3.32h-2.53v-3.49c0-4.28-1.65-7.53-6.07-7.53s-6.07,3.25-6.07,7.53v20.78c0,4.28,1.66,7.48,6.07,7.48s6.07-3.2,6.07-7.48v-4.74h2.53v4.57c0,5.77-2.53,10.1-8.66,10.1s-8.65-4.33-8.65-10.1V179.26c0-5.76,2.52-10.1,8.65-10.1S721.44,173.5,721.44,179.26Z"/><path class="cls-10" d="M728.36,169.51v40h-2.63v-40Z"/><path class="cls-10" d="M736.78,200.61l-2,8.86h-2.41l8.76-40H745l8.94,40h-2.64l-2-8.86Zm.4-2.28h11.69L743,172.47Z"/></g></g></svg>